<svg xmlns="http://www.w3.org/2000/svg" xmlns:xlink="http://www.w3.org/1999/xlink" width="1486.178" height="684.763" viewBox="0 0 1486.178 684.763">
  <defs>
    <clipPath id="clip-path">
      <path id="Bounding_box" data-name="Bounding box" d="M0,0H30V-30H0Z" transform="translate(0 30)" fill="#d9d9d9" style="isolation: isolate"/>
    </clipPath>
    <clipPath id="clip-path-2">
      <rect id="Rectangle_5" data-name="Rectangle 5" width="437.156" height="605.997" fill="none"/>
    </clipPath>
    <clipPath id="clip-path-3">
      <rect id="Rectangle_9" data-name="Rectangle 9" width="95.653" height="93.453" fill="none"/>
    </clipPath>
    <clipPath id="clip-path-4">
      <rect id="Rectangle_7" data-name="Rectangle 7" width="261.669" height="127.204" fill="none"/>
    </clipPath>
  </defs>
  <g id="Header" transform="translate(0 1)" style="isolation: isolate">
    <path id="Vector_2" data-name="Vector 2" d="M389.178,0V88H0" transform="translate(1486.178 88) rotate(180)" fill="none" stroke="#182335" stroke-width="2" style="isolation: isolate"/>
    <g id="Text" transform="translate(106 66.192)" style="isolation: isolate">
      <text id="Unlock_Your_business_With_Yap_Marketing" data-name="Unlock Your business
With Yap Marketing" fill="#182335" font-size="54" font-family="Poppins-Bold, Poppins" font-weight="700" style="isolation: isolate"><tspan x="0" y="57">Unlock Your business</tspan><tspan x="0" y="138">With Yap Marketing</tspan></text>
      <text id="Yap.marketing_is_the_premier_marketing_company_in_the_East_Midlands_renowned_for_delivering_exceptional_results._Our_expert_team_specialises_in_innovative_strategies_tailored_to_your_business_needs_ensuring_maximum_reach_and_engagement._We_offer_compre" data-name="Yap.marketing is the premier marketing company in the East Midlands, renowned for delivering exceptional results. Our expert team specialises in innovative strategies tailored to your business needs, ensuring maximum reach and engagement. 

We offer compre" transform="translate(0 192.808)" fill="#182335" font-size="16" font-family="WorkSans-Regular, Work Sans" style="isolation: isolate"><tspan x="0" y="15">Yap.marketing is the premier marketing company in the East Midlands, </tspan><tspan x="0" y="34">renowned for delivering exceptional results. Our expert team specialises in </tspan><tspan x="0" y="53">innovative strategies tailored to your business needs, ensuring maximum reach </tspan><tspan x="0" y="72">and engagement. </tspan><tspan x="0" y="91"></tspan><tspan x="0" y="110">We offer comprehensive services, from social media management and training </tspan><tspan x="0" y="129">to building professional websites and brand development, designed to boost </tspan><tspan x="0" y="148">your visibility and drive growth. Choose yap.marketing for unparalleled </tspan><tspan x="0" y="167">expertise and transformative outcomes.</tspan></text>
      <g id="Frame_68" data-name="Frame 68" transform="translate(0 433)" style="isolation: isolate">
        <g id="Frame_68-2" data-name="Frame 68" fill="#fd5a46" stroke="#182335" stroke-width="1" style="isolation: isolate">
          <rect width="199" height="50" stroke="none"/>
          <rect x="0.5" y="0.5" width="198" height="49" fill="none"/>
        </g>
        <text id="Learn_More" data-name="Learn More" transform="translate(25 10)" fill="#182335" font-size="18" font-family="Poppins-Regular, Poppins" style="isolation: isolate"><tspan x="0" y="19">Learn More</tspan></text>
        <g id="prompt_suggestion" transform="translate(144 9.808)" clip-path="url(#clip-path)" style="isolation: isolate">
          <path id="prompt_suggestion-2" data-name="prompt_suggestion" d="M5.625-11.25A5.425,5.425,0,0,0,1.641-9.609,5.425,5.425,0,0,0,0-5.625,5.425,5.425,0,0,0,1.641-1.641,5.425,5.425,0,0,0,5.625,0a1.209,1.209,0,0,0,.891-.359,1.209,1.209,0,0,0,.359-.891,1.209,1.209,0,0,0-.359-.891A1.209,1.209,0,0,0,5.625-2.5a3.017,3.017,0,0,1-2.219-.906A3.017,3.017,0,0,1,2.5-5.625a3.017,3.017,0,0,1,.906-2.219A3.017,3.017,0,0,1,5.625-8.75H17.719L14.125-5.125a1.221,1.221,0,0,0-.359.859,1.164,1.164,0,0,0,.359.891A1.185,1.185,0,0,0,15-3.031a1.185,1.185,0,0,0,.875-.344l5.75-5.75A1.2,1.2,0,0,0,22-10a1.2,1.2,0,0,0-.375-.875l-5.75-5.75A1.145,1.145,0,0,0,15-16.984a1.258,1.258,0,0,0-.875.391,1.318,1.318,0,0,0-.359.875,1.145,1.145,0,0,0,.359.875l3.594,3.594Z" transform="translate(3.75 23.75)" fill="#182335" style="isolation: isolate"/>
        </g>
      </g>
    </g>
    <path id="Vector_1" data-name="Vector 1" d="M205.5,0V88H0" transform="translate(0 547)" fill="none" stroke="#182335" stroke-width="2" style="isolation: isolate"/>
    <g id="Graph" transform="translate(880.969 77.766)">
      <g id="Group_1" data-name="Group 1" clip-path="url(#clip-path-2)">
        <path id="Path_1" data-name="Path 1" d="M390.627,603.123H65.313a45.155,45.155,0,0,1-44.964-45.342V78.77A45.155,45.155,0,0,1,65.313,33.428H390.627A45.154,45.154,0,0,1,435.591,78.77V557.781a45.154,45.154,0,0,1-44.964,45.342" transform="translate(1.565 2.874)" fill="#131e3c"/>
        <path id="Path_2" data-name="Path 2" d="M372.778,572.194H47.464A45.154,45.154,0,0,1,2.5,526.852V47.841A45.155,45.155,0,0,1,47.464,2.5H372.778a45.154,45.154,0,0,1,44.964,45.342V526.852a45.154,45.154,0,0,1-44.964,45.342" transform="translate(0.192 0.215)" fill="#fff"/>
        <path id="Path_3" data-name="Path 3" d="M372.778,2.5H39.716C25.094,2.5,2.5,23.21,2.5,48.759V72.335H417.742V48.759C417.742,23.21,387.4,2.5,372.778,2.5" transform="translate(0.192 0.215)" fill="#c1d5f0"/>
        <rect id="Rectangle_1" data-name="Rectangle 1" width="415.242" height="569.695" rx="41.753" transform="translate(2.692 2.714)" fill="none" stroke="#131e3c" stroke-miterlimit="10" stroke-width="5"/>
        <line id="Line_1" data-name="Line 1" x2="415.242" transform="translate(2.692 72.55)" fill="none" stroke="#131e3c" stroke-miterlimit="10" stroke-width="5"/>
        <path id="Path_4" data-name="Path 4" d="M52.386,34.284a7.72,7.72,0,1,1-7.716-7.5,7.609,7.609,0,0,1,7.716,7.5" transform="translate(2.842 2.303)" fill="#e4484d"/>
        <path id="Path_5" data-name="Path 5" d="M80.764,34.284a7.72,7.72,0,1,1-7.716-7.5,7.609,7.609,0,0,1,7.716,7.5" transform="translate(5.024 2.303)" fill="#ffe038"/>
        <path id="Path_6" data-name="Path 6" d="M109.141,34.284a7.72,7.72,0,1,1-7.716-7.5,7.609,7.609,0,0,1,7.716,7.5" transform="translate(7.206 2.303)" fill="#72b160"/>
        <path id="Path_7" data-name="Path 7" d="M52.386,34.284a7.72,7.72,0,1,1-7.716-7.5A7.609,7.609,0,0,1,52.386,34.284Z" transform="translate(2.842 2.303)" fill="none" stroke="#131e3c" stroke-miterlimit="10" stroke-width="5"/>
        <path id="Path_8" data-name="Path 8" d="M80.764,34.284a7.72,7.72,0,1,1-7.716-7.5A7.609,7.609,0,0,1,80.764,34.284Z" transform="translate(5.024 2.303)" fill="none" stroke="#131e3c" stroke-miterlimit="10" stroke-width="5"/>
        <path id="Path_9" data-name="Path 9" d="M109.141,34.284a7.72,7.72,0,1,1-7.716-7.5A7.609,7.609,0,0,1,109.141,34.284Z" transform="translate(7.206 2.303)" fill="none" stroke="#131e3c" stroke-miterlimit="10" stroke-width="5"/>
        <path id="Path_10" data-name="Path 10" d="M111.392,489.643H59a10.126,10.126,0,0,1-10.083-10.169V353.439A10.126,10.126,0,0,1,59,343.27h52.392a10.127,10.127,0,0,1,10.084,10.169V479.474a10.127,10.127,0,0,1-10.084,10.169" transform="translate(3.762 29.509)" fill="#72b160"/>
        <path id="Path_11" data-name="Path 11" d="M224.081,498.089H171.689a10.126,10.126,0,0,1-10.083-10.169V255.2a10.126,10.126,0,0,1,10.083-10.169h52.392A10.127,10.127,0,0,1,234.165,255.2V487.919a10.127,10.127,0,0,1-10.084,10.169" transform="translate(12.428 21.064)" fill="#72b160"/>
        <path id="Path_12" data-name="Path 12" d="M336.77,505.143H284.378A10.126,10.126,0,0,1,274.3,494.974V173.137a10.126,10.126,0,0,1,10.083-10.168H336.77a10.127,10.127,0,0,1,10.084,10.168V494.974a10.127,10.127,0,0,1-10.084,10.169" transform="translate(21.093 14.01)" fill="#72b160"/>
        <path id="Rectangle_2" data-name="Rectangle 2" d="M9.364,0H63.2a9.363,9.363,0,0,1,9.363,9.363V137.009a9.364,9.364,0,0,1-9.364,9.364H9.364A9.364,9.364,0,0,1,0,137.009V9.364A9.364,9.364,0,0,1,9.364,0Z" transform="translate(52.679 372.779)" fill="none" stroke="#131e3c" stroke-miterlimit="10" stroke-width="5"/>
        <path id="Rectangle_3" data-name="Rectangle 3" d="M9.364,0H63.2a9.363,9.363,0,0,1,9.363,9.363V243.7a9.364,9.364,0,0,1-9.364,9.364H9.364A9.364,9.364,0,0,1,0,243.7V9.364A9.364,9.364,0,0,1,9.364,0Z" transform="translate(174.034 266.091)" fill="none" stroke="#131e3c" stroke-miterlimit="10" stroke-width="5"/>
        <path id="Rectangle_4" data-name="Rectangle 4" d="M9.364,0H63.2a9.364,9.364,0,0,1,9.364,9.364V332.811a9.363,9.363,0,0,1-9.363,9.363H9.364A9.364,9.364,0,0,1,0,332.81V9.364A9.364,9.364,0,0,1,9.364,0Z" transform="translate(295.389 176.978)" fill="none" stroke="#131e3c" stroke-miterlimit="10" stroke-width="5"/>
      </g>
    </g>
    <g id="Card" transform="translate(1149.52 178.5)" style="isolation: isolate">
      <g id="Card-2" data-name="Card" fill="#ffc567" stroke="#182335" stroke-width="2" style="isolation: isolate">
        <rect width="277" height="129" stroke="none"/>
        <rect x="1" y="1" width="275" height="127" fill="none"/>
      </g>
      <g id="Frame_65" data-name="Frame 65" transform="translate(145.191 20)" style="isolation: isolate">
        <rect id="Frame_65-2" data-name="Frame 65" width="120.875" height="89" fill="none" style="isolation: isolate"/>
        <text id="SEO_BOOST" data-name="SEO
BOOST" fill="#182335" font-size="28" font-family="Poppins-Bold, Poppins" font-weight="700" style="isolation: isolate"><tspan x="0" y="29">SEO</tspan><tspan x="0" y="71">BOOST</tspan></text>
      </g>
      <g id="Group_5" data-name="Group 5" transform="translate(19.817 15.547)">
        <g id="Group_4" data-name="Group 4" clip-path="url(#clip-path-3)">
          <path id="Path_30" data-name="Path 30" d="M83.609,95.082h-58.5a13.614,13.614,0,0,1-13.638-13.59V25.063a13.613,13.613,0,0,1,13.636-13.59h58.5a13.614,13.614,0,0,1,13.638,13.59V81.492A13.614,13.614,0,0,1,83.61,95.083" transform="translate(-1.595 -1.629)" fill="#112050"/>
          <path id="Path_31" data-name="Path 31" d="M74.636,86.109h-58.5A13.614,13.614,0,0,1,2.5,72.518V16.09A13.613,13.613,0,0,1,16.136,2.5h58.5A13.614,13.614,0,0,1,88.274,16.09V72.518a13.614,13.614,0,0,1-13.638,13.59" transform="translate(-0.348 -0.355)" fill="#fff"/>
          <path id="Rectangle_8" data-name="Rectangle 8" d="M18.147,0H67.628A18.146,18.146,0,0,1,85.774,18.146V65.462A18.147,18.147,0,0,1,67.627,83.609H18.147A18.147,18.147,0,0,1,0,65.462V18.147A18.147,18.147,0,0,1,18.147,0Z" transform="translate(2.152 2.145)" fill="none" stroke="#112050" stroke-miterlimit="10" stroke-width="5"/>
          <path id="Path_32" data-name="Path 32" d="M69.514,40.17A20.514,20.514,0,1,0,33.29,53.316L49,73.774,64.434,53.635a20.32,20.32,0,0,0,5.08-13.465M49,34.889a5.281,5.281,0,1,1-5.3,5.281A5.29,5.29,0,0,1,49,34.889" transform="translate(-3.96 -2.801)" fill="#ed6160"/>
          <path id="Path_33" data-name="Path 33" d="M69.514,40.17A20.514,20.514,0,1,0,33.29,53.316L49,73.774,64.434,53.635A20.32,20.32,0,0,0,69.514,40.17ZM49,34.889a5.281,5.281,0,1,1-5.3,5.281A5.29,5.29,0,0,1,49,34.889Z" transform="translate(-3.96 -2.801)" fill="none" stroke="#112050" stroke-miterlimit="10" stroke-width="5"/>
        </g>
      </g>
    </g>
    <g id="Group_15" data-name="Group 15" transform="translate(686.888 474.104)">
      <g id="Group_2" data-name="Group 2" clip-path="url(#clip-path-4)">
        <path id="Path_13" data-name="Path 13" d="M229.3,127.92H47.22A34.494,34.494,0,0,1,12.665,93.485V38.515A34.495,34.495,0,0,1,47.22,4.08H229.3a34.495,34.495,0,0,1,34.555,34.435v54.97A34.494,34.494,0,0,1,229.3,127.92" transform="translate(-2.183 -0.715)" fill="#112050"/>
        <path id="Path_14" data-name="Path 14" d="M228.83,114.555H31.718A29.168,29.168,0,0,1,2.5,85.437V31.618A29.168,29.168,0,0,1,31.718,2.5H228.83a29.169,29.169,0,0,1,29.219,29.118v53.82a29.169,29.169,0,0,1-29.219,29.118" transform="translate(-0.431 -0.438)" fill="#fff"/>
        <path id="Rectangle_6" data-name="Rectangle 6" d="M35.306,0H220.244a35.305,35.305,0,0,1,35.305,35.305V76.75a35.305,35.305,0,0,1-35.305,35.305H35.306A35.306,35.306,0,0,1,0,76.749V35.306A35.306,35.306,0,0,1,35.306,0Z" transform="translate(2.069 2.062)" fill="none" stroke="#112050" stroke-miterlimit="10" stroke-width="5"/>
        <path id="Path_15" data-name="Path 15" d="M252.713,31.318l7.337,15.427a3.51,3.51,0,0,0,2.726,1.972l16.99,2.188a3.5,3.5,0,0,1,1.962,6.02L269.274,68.647a3.493,3.493,0,0,0-1.041,3.192L271.4,88.617a3.512,3.512,0,0,1-5.139,3.721l-15.035-8.181a3.52,3.52,0,0,0-3.369,0l-15.035,8.181a3.512,3.512,0,0,1-5.139-3.721l3.163-16.777a3.5,3.5,0,0,0-1.041-3.192L217.345,56.925a3.5,3.5,0,0,1,1.963-6.02l16.99-2.188a3.51,3.51,0,0,0,2.725-1.972l7.338-15.427a3.52,3.52,0,0,1,6.352,0" transform="translate(-37.28 -5.138)" fill="#fee652"/>
        <path id="Path_16" data-name="Path 16" d="M252.713,31.318l7.337,15.427a3.51,3.51,0,0,0,2.726,1.972l16.99,2.188a3.5,3.5,0,0,1,1.962,6.02L269.274,68.647a3.493,3.493,0,0,0-1.041,3.192L271.4,88.617a3.512,3.512,0,0,1-5.139,3.721l-15.035-8.181a3.52,3.52,0,0,0-3.369,0l-15.035,8.181a3.512,3.512,0,0,1-5.139-3.721l3.163-16.777a3.5,3.5,0,0,0-1.041-3.192L217.345,56.925a3.5,3.5,0,0,1,1.963-6.02l16.99-2.188a3.51,3.51,0,0,0,2.725-1.972l7.338-15.427A3.52,3.52,0,0,1,252.713,31.318Z" transform="translate(-37.28 -5.138)" fill="none" stroke="#112050" stroke-miterlimit="10" stroke-width="5"/>
        <path id="Path_17" data-name="Path 17" d="M240.277,73.149h0a20.6,20.6,0,0,0,26.808,0" transform="translate(-41.425 -12.821)" fill="none" stroke="#112050" stroke-miterlimit="10" stroke-width="5"/>
        <path id="Path_18" data-name="Path 18" d="M247.807,60.324c0,2.531-1.1,4.583-2.464,4.583s-2.464-2.052-2.464-4.583,1.1-4.583,2.464-4.583,2.464,2.052,2.464,4.583" transform="translate(-41.873 -9.77)" fill="#112050"/>
        <path id="Path_19" data-name="Path 19" d="M268.536,60.324c0,2.531-1.1,4.583-2.464,4.583s-2.464-2.052-2.464-4.583,1.1-4.583,2.464-4.583,2.464,2.052,2.464,4.583" transform="translate(-45.447 -9.77)" fill="#112050"/>
        <path id="Path_20" data-name="Path 20" d="M153.527,31.318l7.337,15.427a3.51,3.51,0,0,0,2.726,1.972L180.58,50.9a3.5,3.5,0,0,1,1.962,6.02L170.088,68.647a3.493,3.493,0,0,0-1.041,3.192l3.162,16.777a3.512,3.512,0,0,1-5.139,3.721l-15.035-8.181a3.52,3.52,0,0,0-3.369,0l-15.035,8.181a3.512,3.512,0,0,1-5.139-3.721l3.163-16.777a3.5,3.5,0,0,0-1.041-3.192L118.159,56.925a3.5,3.5,0,0,1,1.963-6.02l16.99-2.188a3.51,3.51,0,0,0,2.725-1.972l7.338-15.427a3.52,3.52,0,0,1,6.352,0" transform="translate(-20.18 -5.138)" fill="#fee652"/>
        <path id="Path_21" data-name="Path 21" d="M153.527,31.318l7.337,15.427a3.51,3.51,0,0,0,2.726,1.972L180.58,50.9a3.5,3.5,0,0,1,1.962,6.02L170.088,68.647a3.493,3.493,0,0,0-1.041,3.192l3.162,16.777a3.512,3.512,0,0,1-5.139,3.721l-15.035-8.181a3.52,3.52,0,0,0-3.369,0l-15.035,8.181a3.512,3.512,0,0,1-5.139-3.721l3.163-16.777a3.5,3.5,0,0,0-1.041-3.192L118.159,56.925a3.5,3.5,0,0,1,1.963-6.02l16.99-2.188a3.51,3.51,0,0,0,2.725-1.972l7.338-15.427A3.52,3.52,0,0,1,153.527,31.318Z" transform="translate(-20.18 -5.138)" fill="none" stroke="#112050" stroke-miterlimit="10" stroke-width="5"/>
        <path id="Path_22" data-name="Path 22" d="M141.091,73.149h0a20.6,20.6,0,0,0,26.807,0" transform="translate(-24.325 -12.821)" fill="none" stroke="#112050" stroke-miterlimit="10" stroke-width="5"/>
        <path id="Path_23" data-name="Path 23" d="M148.621,60.324c0,2.531-1.1,4.583-2.464,4.583s-2.464-2.052-2.464-4.583,1.1-4.583,2.464-4.583,2.464,2.052,2.464,4.583" transform="translate(-24.773 -9.77)" fill="#112050"/>
        <path id="Path_24" data-name="Path 24" d="M169.35,60.324c0,2.531-1.1,4.583-2.464,4.583s-2.464-2.052-2.464-4.583,1.1-4.583,2.464-4.583,2.464,2.052,2.464,4.583" transform="translate(-28.347 -9.77)" fill="#112050"/>
        <path id="Path_25" data-name="Path 25" d="M54.341,31.318l7.337,15.427A3.51,3.51,0,0,0,64.4,48.717L81.394,50.9a3.5,3.5,0,0,1,1.962,6.02L70.9,68.647a3.493,3.493,0,0,0-1.041,3.192l3.162,16.777a3.512,3.512,0,0,1-5.139,3.721L52.85,84.157a3.52,3.52,0,0,0-3.369,0L34.445,92.338a3.512,3.512,0,0,1-5.139-3.721L32.469,71.84a3.5,3.5,0,0,0-1.041-3.192L18.973,56.925a3.5,3.5,0,0,1,1.963-6.02l16.99-2.188a3.509,3.509,0,0,0,2.725-1.972l7.338-15.427a3.52,3.52,0,0,1,6.352,0" transform="translate(-3.08 -5.138)" fill="#fee652"/>
        <path id="Path_26" data-name="Path 26" d="M54.341,31.318l7.337,15.427A3.51,3.51,0,0,0,64.4,48.717L81.394,50.9a3.5,3.5,0,0,1,1.962,6.02L70.9,68.647a3.493,3.493,0,0,0-1.041,3.192l3.162,16.777a3.512,3.512,0,0,1-5.139,3.721L52.85,84.157a3.52,3.52,0,0,0-3.369,0L34.445,92.338a3.512,3.512,0,0,1-5.139-3.721L32.469,71.84a3.5,3.5,0,0,0-1.041-3.192L18.973,56.925a3.5,3.5,0,0,1,1.963-6.02l16.99-2.188a3.509,3.509,0,0,0,2.725-1.972l7.338-15.427A3.52,3.52,0,0,1,54.341,31.318Z" transform="translate(-3.08 -5.138)" fill="none" stroke="#112050" stroke-miterlimit="10" stroke-width="5"/>
        <path id="Path_27" data-name="Path 27" d="M41.905,73.149h0a20.6,20.6,0,0,0,26.807,0" transform="translate(-7.225 -12.821)" fill="none" stroke="#112050" stroke-miterlimit="10" stroke-width="5"/>
        <path id="Path_28" data-name="Path 28" d="M49.435,60.324c0,2.531-1.1,4.583-2.464,4.583s-2.464-2.052-2.464-4.583,1.1-4.583,2.464-4.583,2.464,2.052,2.464,4.583" transform="translate(-7.673 -9.77)" fill="#112050"/>
        <path id="Path_29" data-name="Path 29" d="M70.164,60.324c0,2.531-1.1,4.583-2.464,4.583s-2.464-2.052-2.464-4.583,1.1-4.583,2.464-4.583,2.464,2.052,2.464,4.583" transform="translate(-11.247 -9.77)" fill="#112050"/>
      </g>
    </g>
  </g>
</svg>
